<svg xmlns="http://www.w3.org/2000/svg" xmlns:xlink="http://www.w3.org/1999/xlink" version="1.0" x="0" y="0" width="2400" height="2181.1860800417426" viewBox="78.90889968872071 42.21389999389648 182.18220062255858 165.57220001220702" preserveAspectRatio="xMidYMid meet" color-interpolation-filters="sRGB"><g><defs><linearGradient id="92" x1="0%" y1="0%" x2="100%" y2="0%"><stop offset="0%" stop-color="#fa71cd"></stop> <stop offset="100%" stop-color="#9b59b6"></stop></linearGradient><linearGradient id="93" x1="0%" y1="0%" x2="100%" y2="0%"><stop offset="0%" stop-color="#f9d423"></stop> <stop offset="100%" stop-color="#f83600"></stop></linearGradient><linearGradient id="94" x1="0%" y1="0%" x2="100%" y2="0%"><stop offset="0%" stop-color="#0064d2"></stop> <stop offset="100%" stop-color="#1cb0f6"></stop></linearGradient><linearGradient id="95" x1="0%" y1="0%" x2="100%" y2="0%"><stop offset="0%" stop-color="#f00978"></stop> <stop offset="100%" stop-color="#3f51b1"></stop></linearGradient><linearGradient id="96" x1="0%" y1="0%" x2="100%" y2="0%"><stop offset="0%" stop-color="#7873f5"></stop> <stop offset="100%" stop-color="#ec77ab"></stop></linearGradient><linearGradient id="97" x1="0%" y1="0%" x2="100%" y2="0%"><stop offset="0%" stop-color="#f9d423"></stop> <stop offset="100%" stop-color="#e14fad"></stop></linearGradient><linearGradient id="98" x1="0%" y1="0%" x2="100%" y2="0%"><stop offset="0%" stop-color="#009efd"></stop> <stop offset="100%" stop-color="#2af598"></stop></linearGradient><linearGradient id="99" x1="0%" y1="0%" x2="100%" y2="0%"><stop offset="0%" stop-color="#ffcc00"></stop> <stop offset="100%" stop-color="#00b140"></stop></linearGradient><linearGradient id="100" x1="0%" y1="0%" x2="100%" y2="0%"><stop offset="0%" stop-color="#d51007"></stop> <stop offset="100%" stop-color="#ff8177"></stop></linearGradient><linearGradient id="102" x1="0%" y1="0%" x2="100%" y2="0%"><stop offset="0%" stop-color="#a2b6df"></stop> <stop offset="100%" stop-color="#0c3483"></stop></linearGradient><linearGradient id="103" x1="0%" y1="0%" x2="100%" y2="0%"><stop offset="0%" stop-color="#7ac5d8"></stop> <stop offset="100%" stop-color="#eea2a2"></stop></linearGradient><linearGradient id="104" x1="0%" y1="0%" x2="100%" y2="0%"><stop offset="0%" stop-color="#00ecbc"></stop> <stop offset="100%" stop-color="#007adf"></stop></linearGradient><linearGradient id="105" x1="0%" y1="0%" x2="100%" y2="0%"><stop offset="0%" stop-color="#b88746"></stop> <stop offset="100%" stop-color="#fdf5a6"></stop></linearGradient></defs><g class="iconmbgsvg" transform="translate(80.69499969482422,50)"><g fill="#ffffff" hollow-target="text"><g transform="translate(14.305000305175781,0)" mask="url(#b28b3ccb-7bd5-46c9-a043-438bb1554fa3)"><g><rect fill="#ffffff" fill-opacity="0" stroke-width="2" x="0" y="0" width="150" height="150" class="image-rect"></rect> <svg x="0" y="0" width="150" height="150" filtersec="colorsb6097231824" class="image-svg-svg primary" style="overflow: visible;"><svg xmlns="http://www.w3.org/2000/svg" viewBox="0 0 91.80000305175781 91.80000305175781"><path d="M45.9 0a45.9 45.9 0 1 0 45.9 45.9A45.9 45.9 0 0 0 45.9 0zm36.7 67.18a37.25 37.25 0 0 0-10.89-9 24.59 24.59 0 0 1 15.45-2.37 42.18 42.18 0 0 1-4.56 11.37zM4.67 55.9A30 30 0 0 1 20 58.23a37.13 37.13 0 0 0-10.76 9A42.25 42.25 0 0 1 4.67 55.9zm-1.19-10c0-1 0-2 .11-3a53 53 0 0 1 14.61-.09 19.87 19.87 0 0 0-8.53 10.25 32 32 0 0 0-5.55.19 42.39 42.39 0 0 1-.64-7.35zM5.83 32a53.09 53.09 0 0 0 6.82 7.63 48.5 48.5 0 0 0-8.78.57A43 43 0 0 1 5.83 32zM10 23.36a47.61 47.61 0 0 1 8.92.35 44.6 44.6 0 0 0 2.48 8.9 38.48 38.48 0 0 0 5.48 9.73 42.37 42.37 0 0 0-5.39-1.64 45.76 45.76 0 0 0-4.51-.8c-2.47-2.22-8.28-7.79-9.52-10.58a1.44 1.44 0 0 0-.36-.48 42.77 42.77 0 0 1 2.9-5.48zM24.21 9.44a15.75 15.75 0 0 1 4.2 0 17.87 17.87 0 0 1 10.11 4.82c3.72 3.45 4.65 8.4 4.83 11.54-.05 1-.17 3.74-.37 7.45a36.94 36.94 0 0 0-4.29-4 38.21 38.21 0 0 0-7.45-4.64c-.83-2-4.17-9.42-10-13.17.94-.73 1.94-1.38 2.97-2zm14 1.05a20.1 20.1 0 0 0-8.8-3.68 41.45 41.45 0 0 1 9.09-2.68zm15.1 0a45.09 45.09 0 0 0-1.43-6.59 42.85 42.85 0 0 1 9.62 2.54 21 21 0 0 0-8.19 4.05zM65.7 8.4a41 41 0 0 1 4.86 3c-5.89 3.76-9.14 11.15-9.92 13.12a38.12 38.12 0 0 0-7.55 4.69 37.1 37.1 0 0 0-4.3 4c-.12-2.22-.21-4.08-.27-5.44A23.92 23.92 0 0 1 50 19.71c2.49-6.58 7.77-10.39 15.7-11.31zm19 20.44a1.32 1.32 0 0 0-.36.48c-1.24 2.78-7.06 8.36-9.53 10.58a45 45 0 0 0-4.5.8A44 44 0 0 0 65 42.33a37.92 37.92 0 0 0 5.47-9.72 44.6 44.6 0 0 0 2.48-8.9 47.68 47.68 0 0 1 8.92-.35 42.83 42.83 0 0 1 2.88 5.48zm3.18 11.31a48.4 48.4 0 0 0-8.77-.57A53.62 53.62 0 0 0 86 32a42.27 42.27 0 0 1 1.93 8.15zm-20-8.45c-1.78 4.52-5.17 10.75-11.26 14.76a1 1 0 0 0-.25.21 44.16 44.16 0 0 0-6.49 5.14c-.34-5.14-.65-10.3-.88-14.69a34.82 34.82 0 0 1 5.76-5.8 36.26 36.26 0 0 1 10.79-5.88 39 39 0 0 1 4.55-1.24 44 44 0 0 1-2.19 7.5zm-31-.45a35 35 0 0 1 5.87 5.88c-.24 4.38-.54 9.54-.89 14.68a43.62 43.62 0 0 0-6.49-5.14 1.21 1.21 0 0 0-.24-.21c-6.09-4-9.49-10.24-11.27-14.76a42.84 42.84 0 0 1-2.18-7.5 38.57 38.57 0 0 1 4.43 1.21 36 36 0 0 1 10.8 5.84zM23 56.73a31.28 31.28 0 0 0-10.58-3.41c2.7-6.66 9.16-9.29 10-9.6a41.29 41.29 0 0 1 10.34 4.47 42.34 42.34 0 0 1 7.4 5.69 37.21 37.21 0 0 0-9.58.55 36.27 36.27 0 0 0-7.58 2.3zm36-8.48a41 41 0 0 1 10.44-4.53A18.29 18.29 0 0 1 79.2 53a28.89 28.89 0 0 0-10.47 3.76 36.33 36.33 0 0 0-7.51-2.29 37.21 37.21 0 0 0-9.58-.55A41.43 41.43 0 0 1 59 48.25zm23 4.45a20 20 0 0 0-8.43-9.89 44.12 44.12 0 0 1 14 0 1.32 1.32 0 0 0 .63-.06c.08 1 .12 2.09.12 3.14a42.11 42.11 0 0 1-.62 7.24 24.6 24.6 0 0 0-5.7-.43zm-2-32.09a44.85 44.85 0 0 0-15.25 2.28l-.48.17c1.34-2.72 4.17-7.44 8.59-9.85h.06a42.29 42.29 0 0 1 7.08 7.4zm-31-17a45 45 0 0 1 2 9.28 20.22 20.22 0 0 0-3.42 5.89c-.86 2.26-2 2.48-2.72.33a17.12 17.12 0 0 0-4-6.39l.41-9a42.66 42.66 0 0 1 4.69-.26c.96.02 1.97.06 2.97.13zm-30 9.58h.06c4.42 2.41 7.25 7.13 8.59 9.85l-.48-.17a44.83 44.83 0 0 0-15.24-2.28 42.23 42.23 0 0 1 6.99-7.42zm-8.29 56.4a33.7 33.7 0 0 1 30.83-12.85c-.49 6.66-1.06 12.83-1.65 16.7-1.72 11.17-8.1 12-9.3 12a42.57 42.57 0 0 1-19.88-15.85zm50.51 15.88c-1.2 0-7.59-.86-9.3-12-.6-3.87-1.16-10-1.66-16.7a32.81 32.81 0 0 1 10.46.34A33.31 33.31 0 0 1 71 60.83a34.79 34.79 0 0 1 10.07 8.76 42.54 42.54 0 0 1-19.85 15.88z" fill="#333"></path><path d="M31.76 61.13c2.45-2.45 6.56-2.31 6.56-2.31s.15 4.12-2.3 6.57-6.57 2.31-6.57 2.31-.15-4.12 2.31-6.57zM38 38.54c2.45 2.45 2.31 6.57 2.31 6.57s-4.12.14-6.57-2.31-2.3-6.57-2.3-6.57 4.13-.14 6.56 2.31zM28 48.05c2.76.2 4.84 2.75 4.84 2.75s-2.41 2.25-5.18 2.06-4.84-2.75-4.84-2.75 2.44-2.25 5.18-2.06zM39.72 21.76c1.82 2.09 1.48 5.37 1.48 5.37s-3.29-.11-5.12-2.2-1.48-5.37-1.48-5.37 3.3.11 5.12 2.2zM52.39 21.76c-1.83 2.09-1.49 5.37-1.49 5.37s3.3-.13 5.1-2.2 1.48-5.37 1.48-5.37-3.27.11-5.09 2.2zM60.05 61.13c-2.45-2.45-6.57-2.31-6.57-2.31s-.14 4.12 2.31 6.57 6.57 2.31 6.57 2.31.14-4.12-2.31-6.57zM53.78 38.54c-2.45 2.45-2.31 6.57-2.31 6.57s4.12.14 6.57-2.31 2.31-6.57 2.31-6.57-4.12-.14-6.57 2.31zM63.78 48.05c-2.77.2-4.85 2.75-4.85 2.75s2.41 2.25 5.18 2.06S69 50.11 69 50.11s-2.46-2.25-5.22-2.06zM48.2 12.26c0 2.19-2.3 4-2.3 4s-2.3-1.78-2.3-4 2.3-4 2.3-4 2.3 1.8 2.3 4z" fill="#7bc04f"></path></svg></svg> </g><rect v-gra="id" width="162" height="162" transform="translate(-6, -6)" style="pointer-events:none;" fill="url(#oIkG_I9iGnBoWegLxXl7g)"></rect></g> <g transform="translate(0,70.29499959945679)"><g fill-rule="" class="tp-name"><g transform="scale(1)"><g><path d="M0.96-10.17L3.47-10.17C3.47-11.54 4.13-12.76 5.95-12.76 7.45-12.76 8.39-12.08 8.39-10.47 8.39-6.25 0.75-7.17 0.75 0L11.03 0 11.03-2.61 4.11-2.61 4.11-2.65C5.22-5.5 11.03-5.61 11.03-10.68 11.03-13.47 9.31-15.2 5.95-15.2 2.4-15.2 0.96-13.12 0.96-10.17ZM14.9 0L17.69 0 17.69-14.99 14.99-14.99C14.52-14.32 13.64-13.45 12.2-13.4L12.2-10.94C13.55-10.98 14.47-11.69 14.86-12.16L14.9-12.16ZM20-4.2C20-1.82 21.45 0.21 24.77 0.21 28.07 0.21 30.83-1.05 30.83-7.92 30.83-12.93 29.08-15.2 25.22-15.2 22.46-15.2 19.89-13.7 19.89-10.23 19.89-7.28 21.62-5.4 24.67-5.4 26.34-5.4 27.58-6 28.3-7.04 28.16-3.36 27.06-2.01 24.79-2.01 23.32-2.01 22.35-2.91 22.27-4.2ZM28.24-9.98C28.26-8.35 27-7.3 25.18-7.3 23.14-7.3 22.25-8.52 22.25-10.23 22.25-12.03 23.51-13 25.2-13 27.23-13 27.98-11.99 28.24-9.98ZM32.01-4.62C32.01-2.51 33.4 0.21 37.19 0.21 41.04 0.21 42.82-2.21 42.82-4.99 42.82-8.69 40.77-10.23 38.09-10.23 36.85-10.23 35.76-9.91 35.01-9.16L34.96-9.16 35.76-12.65 41.71-12.65 41.71-14.99 33.79-14.99 32.52-7.62 34.69-6.74C35.41-7.64 36.25-8.09 37.47-8.09 39.37-8.09 40.21-6.98 40.21-5.01 40.21-3.06 38.99-2.12 37.38-2.12 35.48-2.12 34.62-3.15 34.56-4.62ZM44.53-4.2C44.53-1.82 45.99 0.21 49.31 0.21 52.61 0.21 55.37-1.05 55.37-7.92 55.37-12.93 53.61-15.2 49.76-15.2 47-15.2 44.43-13.7 44.43-10.23 44.43-7.28 46.16-5.4 49.2-5.4 50.87-5.4 52.11-6 52.84-7.04 52.69-3.36 51.6-2.01 49.33-2.01 47.85-2.01 46.89-2.91 46.8-4.2ZM52.78-9.98C52.8-8.35 51.54-7.3 49.72-7.3 47.68-7.3 46.78-8.52 46.78-10.23 46.78-12.03 48.05-13 49.74-13 51.77-13 52.52-11.99 52.78-9.98ZM63.59-14.99L63.59 0 69.78 0C74.34 0 76.33-3.25 76.33-7.49 76.33-11.75 74.34-14.99 69.78-14.99ZM68.84-12.18C71.38-12.18 73.29-11.2 73.29-7.49 73.29-3.77 71.4-2.83 68.86-2.83L66.5-2.83 66.5-12.18ZM78.64 0L81.53 0 81.53-5.29 84.89-5.29 87.7 0 90.95 0 87.46-5.78C89.28-6.68 90.1-8.65 90.1-10.26 90.1-13.27 88.21-14.99 84.83-14.99L78.64-14.99 78.64-12.46 84.51-12.46C86.44-12.46 87.38-11.67 87.38-10.19 87.38-8.61 86.26-7.69 84.53-7.69L78.64-7.69ZM103.44-12.18L103.44-14.99 92.34-14.99 92.34-12.18ZM103.44-6.17L103.44-8.82 92.34-8.82 92.34-6.17ZM92.34 0L103.44 0 103.44-2.83 92.34-2.83ZM113.88-14.99L110.22-14.99 104.85 0 107.97 0 111.96-11.88 112.17-11.88 116.43 0 119.77 0ZM128.27-1.95L130.26-1.95 134.57-9.59 134.67-9.59 134.67 0 137.56 0 137.56-14.99 134.63-14.99 129.45-5.42 129.36-5.42 124.23-14.99 121.33-14.99ZM121.33 0L124.14 0 124.14-5.89 121.33-11.15ZM154.11 0L157 0 157-5.29 160.37-5.29 163.17 0 166.43 0 162.94-5.78C164.76-6.68 165.57-8.65 165.57-10.26 165.57-13.27 163.69-14.99 160.3-14.99L140.28-14.99 140.28-12.38 159.98-12.38C161.91-12.38 162.85-11.67 162.85-10.19 162.85-8.61 161.74-7.69 160-7.69L154.11-7.69ZM151.37-6.17L151.37-8.82 140.28-8.82 140.28-6.17ZM140.28 0L151.37 0 151.37-2.83 140.28-2.83ZM173.17-12.87C175.12-12.87 176.47-11.78 176.47-10.06L179.36-10.06C179.36-13.42 176.98-15.2 173.15-15.2ZM167.39-11.18C167.39-5.72 176.47-7.69 176.47-4.15 176.47-2.93 175.2-2.14 173.41-2.14 171.33-2.14 170.11-3.21 170.11-4.95L167.17-4.95C167.17-1.39 169.68 0.21 173.47 0.21 176.94 0.21 179.36-1.52 179.36-4.15 179.36-9.59 170.19-7.94 170.19-11.13Z" transform="translate(-0.75, 15.199999809265137)"></path></g> </g></g> </g></g></g><mask id="8179e757-64fb-413c-918a-9c4e72e583ad"><g fill="white"><g><rect fill-opacity="1" stroke-width="2" x="0" y="0" width="150" height="150" class="image-rect"></rect> <svg x="0" y="0" width="150" height="150" filtersec="colorsb6097231824" class="image-svg-svg primary" style="overflow: visible;"><svg xmlns="http://www.w3.org/2000/svg" viewBox="0 0 91.80000305175781 91.80000305175781"><path d="M45.9 0a45.9 45.9 0 1 0 45.9 45.9A45.9 45.9 0 0 0 45.9 0zm36.7 67.18a37.25 37.25 0 0 0-10.89-9 24.59 24.59 0 0 1 15.45-2.37 42.18 42.18 0 0 1-4.56 11.37zM4.67 55.9A30 30 0 0 1 20 58.23a37.13 37.13 0 0 0-10.76 9A42.25 42.25 0 0 1 4.67 55.9zm-1.19-10c0-1 0-2 .11-3a53 53 0 0 1 14.61-.09 19.87 19.87 0 0 0-8.53 10.25 32 32 0 0 0-5.55.19 42.39 42.39 0 0 1-.64-7.35zM5.83 32a53.09 53.09 0 0 0 6.82 7.63 48.5 48.5 0 0 0-8.78.57A43 43 0 0 1 5.83 32zM10 23.36a47.61 47.61 0 0 1 8.92.35 44.6 44.6 0 0 0 2.48 8.9 38.48 38.48 0 0 0 5.48 9.73 42.37 42.37 0 0 0-5.39-1.64 45.76 45.76 0 0 0-4.51-.8c-2.47-2.22-8.28-7.79-9.52-10.58a1.44 1.44 0 0 0-.36-.48 42.77 42.77 0 0 1 2.9-5.48zM24.21 9.44a15.75 15.75 0 0 1 4.2 0 17.87 17.87 0 0 1 10.11 4.82c3.72 3.45 4.65 8.4 4.83 11.54-.05 1-.17 3.74-.37 7.45a36.94 36.94 0 0 0-4.29-4 38.21 38.21 0 0 0-7.45-4.64c-.83-2-4.17-9.42-10-13.17.94-.73 1.94-1.38 2.97-2zm14 1.05a20.1 20.1 0 0 0-8.8-3.68 41.45 41.45 0 0 1 9.09-2.68zm15.1 0a45.09 45.09 0 0 0-1.43-6.59 42.85 42.85 0 0 1 9.62 2.54 21 21 0 0 0-8.19 4.05zM65.7 8.4a41 41 0 0 1 4.86 3c-5.89 3.76-9.14 11.15-9.92 13.12a38.12 38.12 0 0 0-7.55 4.69 37.1 37.1 0 0 0-4.3 4c-.12-2.22-.21-4.08-.27-5.44A23.92 23.92 0 0 1 50 19.71c2.49-6.58 7.77-10.39 15.7-11.31zm19 20.44a1.32 1.32 0 0 0-.36.48c-1.24 2.78-7.06 8.36-9.53 10.58a45 45 0 0 0-4.5.8A44 44 0 0 0 65 42.33a37.92 37.92 0 0 0 5.47-9.72 44.6 44.6 0 0 0 2.48-8.9 47.68 47.68 0 0 1 8.92-.35 42.83 42.83 0 0 1 2.88 5.48zm3.18 11.31a48.4 48.4 0 0 0-8.77-.57A53.62 53.62 0 0 0 86 32a42.27 42.27 0 0 1 1.93 8.15zm-20-8.45c-1.78 4.52-5.17 10.75-11.26 14.76a1 1 0 0 0-.25.21 44.16 44.16 0 0 0-6.49 5.14c-.34-5.14-.65-10.3-.88-14.69a34.82 34.82 0 0 1 5.76-5.8 36.26 36.26 0 0 1 10.79-5.88 39 39 0 0 1 4.55-1.24 44 44 0 0 1-2.19 7.5zm-31-.45a35 35 0 0 1 5.87 5.88c-.24 4.38-.54 9.54-.89 14.68a43.62 43.62 0 0 0-6.49-5.14 1.21 1.21 0 0 0-.24-.21c-6.09-4-9.49-10.24-11.27-14.76a42.84 42.84 0 0 1-2.18-7.5 38.57 38.57 0 0 1 4.43 1.21 36 36 0 0 1 10.8 5.84zM23 56.73a31.28 31.28 0 0 0-10.58-3.41c2.7-6.66 9.16-9.29 10-9.6a41.29 41.29 0 0 1 10.34 4.47 42.34 42.34 0 0 1 7.4 5.69 37.21 37.21 0 0 0-9.58.55 36.27 36.27 0 0 0-7.58 2.3zm36-8.48a41 41 0 0 1 10.44-4.53A18.29 18.29 0 0 1 79.2 53a28.89 28.89 0 0 0-10.47 3.76 36.33 36.33 0 0 0-7.51-2.29 37.21 37.21 0 0 0-9.58-.55A41.43 41.43 0 0 1 59 48.25zm23 4.45a20 20 0 0 0-8.43-9.89 44.12 44.12 0 0 1 14 0 1.32 1.32 0 0 0 .63-.06c.08 1 .12 2.09.12 3.14a42.11 42.11 0 0 1-.62 7.24 24.6 24.6 0 0 0-5.7-.43zm-2-32.09a44.85 44.85 0 0 0-15.25 2.28l-.48.17c1.34-2.72 4.17-7.44 8.59-9.85h.06a42.29 42.29 0 0 1 7.08 7.4zm-31-17a45 45 0 0 1 2 9.28 20.22 20.22 0 0 0-3.42 5.89c-.86 2.26-2 2.48-2.72.33a17.12 17.12 0 0 0-4-6.39l.41-9a42.66 42.66 0 0 1 4.69-.26c.96.02 1.97.06 2.97.13zm-30 9.58h.06c4.42 2.41 7.25 7.13 8.59 9.85l-.48-.17a44.83 44.83 0 0 0-15.24-2.28 42.23 42.23 0 0 1 6.99-7.42zm-8.29 56.4a33.7 33.7 0 0 1 30.83-12.85c-.49 6.66-1.06 12.83-1.65 16.7-1.72 11.17-8.1 12-9.3 12a42.57 42.57 0 0 1-19.88-15.85zm50.51 15.88c-1.2 0-7.59-.86-9.3-12-.6-3.87-1.16-10-1.66-16.7a32.81 32.81 0 0 1 10.46.34A33.31 33.31 0 0 1 71 60.83a34.79 34.79 0 0 1 10.07 8.76 42.54 42.54 0 0 1-19.85 15.88z"></path><path d="M31.76 61.13c2.45-2.45 6.56-2.31 6.56-2.31s.15 4.12-2.3 6.57-6.57 2.31-6.57 2.31-.15-4.12 2.31-6.57zM38 38.54c2.45 2.45 2.31 6.57 2.31 6.57s-4.12.14-6.57-2.31-2.3-6.57-2.3-6.57 4.13-.14 6.56 2.31zM28 48.05c2.76.2 4.84 2.75 4.84 2.75s-2.41 2.25-5.18 2.06-4.84-2.75-4.84-2.75 2.44-2.25 5.18-2.06zM39.72 21.76c1.82 2.09 1.48 5.37 1.48 5.37s-3.29-.11-5.12-2.2-1.48-5.37-1.48-5.37 3.3.11 5.12 2.2zM52.39 21.76c-1.83 2.09-1.49 5.37-1.49 5.37s3.3-.13 5.1-2.2 1.48-5.37 1.48-5.37-3.27.11-5.09 2.2zM60.05 61.13c-2.45-2.45-6.57-2.31-6.57-2.31s-.14 4.12 2.31 6.57 6.57 2.31 6.57 2.31.14-4.12-2.31-6.57zM53.78 38.54c-2.45 2.45-2.31 6.57-2.31 6.57s4.12.14 6.57-2.31 2.31-6.57 2.31-6.57-4.12-.14-6.57 2.31zM63.78 48.05c-2.77.2-4.85 2.75-4.85 2.75s2.41 2.25 5.18 2.06S69 50.11 69 50.11s-2.46-2.25-5.22-2.06zM48.2 12.26c0 2.19-2.3 4-2.3 4s-2.3-1.78-2.3-4 2.3-4 2.3-4 2.3 1.8 2.3 4z"></path></svg></svg> </g></g> <g transform="translate(-14.305000305175781,70.29499959945679)" fill="black" stroke="black" stroke-width="6" stroke-linejoin="round"><g fill-rule="" class="tp-name"><g transform="scale(1)"><g><path d="M0.96-10.17L3.47-10.17C3.47-11.54 4.13-12.76 5.95-12.76 7.45-12.76 8.39-12.08 8.39-10.47 8.39-6.25 0.75-7.17 0.75 0L11.03 0 11.03-2.61 4.11-2.61 4.11-2.65C5.22-5.5 11.03-5.61 11.03-10.68 11.03-13.47 9.31-15.2 5.95-15.2 2.4-15.2 0.96-13.12 0.96-10.17ZM14.9 0L17.69 0 17.69-14.99 14.99-14.99C14.52-14.32 13.64-13.45 12.2-13.4L12.2-10.94C13.55-10.98 14.47-11.69 14.86-12.16L14.9-12.16ZM20-4.2C20-1.82 21.45 0.21 24.77 0.21 28.07 0.21 30.83-1.05 30.83-7.92 30.83-12.93 29.08-15.2 25.22-15.2 22.46-15.2 19.89-13.7 19.89-10.23 19.89-7.28 21.62-5.4 24.67-5.4 26.34-5.4 27.58-6 28.3-7.04 28.16-3.36 27.06-2.01 24.79-2.01 23.32-2.01 22.35-2.91 22.27-4.2ZM28.24-9.98C28.26-8.35 27-7.3 25.18-7.3 23.14-7.3 22.25-8.52 22.25-10.23 22.25-12.03 23.51-13 25.2-13 27.23-13 27.98-11.99 28.24-9.98ZM32.01-4.62C32.01-2.51 33.4 0.21 37.19 0.21 41.04 0.21 42.82-2.21 42.82-4.99 42.82-8.69 40.77-10.23 38.09-10.23 36.85-10.23 35.76-9.91 35.01-9.16L34.96-9.16 35.76-12.65 41.71-12.65 41.71-14.99 33.79-14.99 32.52-7.62 34.69-6.74C35.41-7.64 36.25-8.09 37.47-8.09 39.37-8.09 40.21-6.98 40.21-5.01 40.21-3.06 38.99-2.12 37.38-2.12 35.48-2.12 34.62-3.15 34.56-4.62ZM44.53-4.2C44.53-1.82 45.99 0.21 49.31 0.21 52.61 0.21 55.37-1.05 55.37-7.92 55.37-12.93 53.61-15.2 49.76-15.2 47-15.2 44.43-13.7 44.43-10.23 44.43-7.28 46.16-5.4 49.2-5.4 50.87-5.4 52.11-6 52.84-7.04 52.69-3.36 51.6-2.01 49.33-2.01 47.85-2.01 46.89-2.91 46.8-4.2ZM52.78-9.98C52.8-8.35 51.54-7.3 49.72-7.3 47.68-7.3 46.78-8.52 46.78-10.23 46.78-12.03 48.05-13 49.74-13 51.77-13 52.52-11.99 52.78-9.98ZM63.59-14.99L63.59 0 69.78 0C74.34 0 76.33-3.25 76.33-7.49 76.33-11.75 74.34-14.99 69.78-14.99ZM68.84-12.18C71.38-12.18 73.29-11.2 73.29-7.49 73.29-3.77 71.4-2.83 68.86-2.83L66.5-2.83 66.5-12.18ZM78.64 0L81.53 0 81.53-5.29 84.89-5.29 87.7 0 90.95 0 87.46-5.78C89.28-6.68 90.1-8.65 90.1-10.26 90.1-13.27 88.21-14.99 84.83-14.99L78.64-14.99 78.64-12.46 84.51-12.46C86.44-12.46 87.38-11.67 87.38-10.19 87.38-8.61 86.26-7.69 84.53-7.69L78.64-7.69ZM103.44-12.18L103.44-14.99 92.34-14.99 92.34-12.18ZM103.44-6.17L103.44-8.82 92.34-8.82 92.34-6.17ZM92.34 0L103.44 0 103.44-2.83 92.34-2.83ZM113.88-14.99L110.22-14.99 104.85 0 107.97 0 111.96-11.88 112.17-11.88 116.43 0 119.77 0ZM128.27-1.95L130.26-1.95 134.57-9.59 134.67-9.59 134.67 0 137.56 0 137.56-14.99 134.63-14.99 129.45-5.42 129.36-5.42 124.23-14.99 121.33-14.99ZM121.33 0L124.14 0 124.14-5.89 121.33-11.15ZM154.11 0L157 0 157-5.29 160.37-5.29 163.17 0 166.43 0 162.94-5.78C164.76-6.68 165.57-8.65 165.57-10.26 165.57-13.27 163.69-14.99 160.3-14.99L140.28-14.99 140.28-12.38 159.98-12.38C161.91-12.38 162.85-11.67 162.85-10.19 162.85-8.61 161.74-7.69 160-7.69L154.11-7.69ZM151.37-6.17L151.37-8.82 140.28-8.82 140.28-6.17ZM140.28 0L151.37 0 151.37-2.83 140.28-2.83ZM173.17-12.87C175.12-12.87 176.47-11.78 176.47-10.06L179.36-10.06C179.36-13.42 176.98-15.2 173.15-15.2ZM167.39-11.18C167.39-5.72 176.47-7.69 176.47-4.15 176.47-2.93 175.2-2.14 173.41-2.14 171.33-2.14 170.11-3.21 170.11-4.95L167.17-4.95C167.17-1.39 169.68 0.21 173.47 0.21 176.94 0.21 179.36-1.52 179.36-4.15 179.36-9.59 170.19-7.94 170.19-11.13Z" transform="translate(-0.75, 15.199999809265137)"></path></g> </g></g> </g></mask><defs v-gra="od"></defs><defs v-gra="id"><filter id="54c96707-edac-47db-8de6-b33842a16404" filterUnits="userSpaceOnUse"><feColorMatrix type="matrix" values="0 0 0 0 0.99609375  0 0 0 0 0.99609375  0 0 0 0 0.99609375  0 0 0 1 0"></feColorMatrix></filter><linearGradient x1="0" y1="1" x2="0" y2="0" id="oIkG_I9iGnBoWegLxXl7g"><stop offset="0%" stop-color="#12c2e9"></stop><stop offset="50%" stop-color="#c471ed"></stop><stop offset="100%" stop-color="#f64f59"></stop></linearGradient><filter id="42443b3f1de60f6b6fd3b6a9844b4764" filterUnits="objectBoundingBox"><feColorMatrix type="matrix" values="0 0 0 0 0.99609375  0 0 0 0 0.99609375  0 0 0 0 0.99609375  0 0 0 1 0"></feColorMatrix></filter></defs><mask v-gra="im" id="b28b3ccb-7bd5-46c9-a043-438bb1554fa3"><g mask="url(#8179e757-64fb-413c-918a-9c4e72e583ad)" filter="url(#54c96707-edac-47db-8de6-b33842a16404)"><g><rect fill="#ffffff" fill-opacity="0" stroke-width="2" x="0" y="0" width="150" height="150" class="image-rect"></rect> <svg x="0" y="0" width="150" height="150" filtersec="colorsb6097231824" class="image-svg-svg primary" style="overflow: visible;"><svg xmlns="http://www.w3.org/2000/svg" viewBox="0 0 91.80000305175781 91.80000305175781"><path d="M45.9 0a45.9 45.9 0 1 0 45.9 45.9A45.9 45.9 0 0 0 45.9 0zm36.7 67.18a37.25 37.25 0 0 0-10.89-9 24.59 24.59 0 0 1 15.45-2.37 42.18 42.18 0 0 1-4.56 11.37zM4.67 55.9A30 30 0 0 1 20 58.23a37.13 37.13 0 0 0-10.76 9A42.25 42.25 0 0 1 4.67 55.9zm-1.19-10c0-1 0-2 .11-3a53 53 0 0 1 14.61-.09 19.87 19.87 0 0 0-8.53 10.25 32 32 0 0 0-5.55.19 42.39 42.39 0 0 1-.64-7.35zM5.83 32a53.09 53.09 0 0 0 6.82 7.63 48.5 48.5 0 0 0-8.78.57A43 43 0 0 1 5.83 32zM10 23.36a47.61 47.61 0 0 1 8.92.35 44.6 44.6 0 0 0 2.48 8.9 38.48 38.48 0 0 0 5.48 9.73 42.37 42.37 0 0 0-5.39-1.64 45.76 45.76 0 0 0-4.51-.8c-2.47-2.22-8.28-7.79-9.52-10.58a1.44 1.44 0 0 0-.36-.48 42.77 42.77 0 0 1 2.9-5.48zM24.21 9.44a15.75 15.75 0 0 1 4.2 0 17.87 17.87 0 0 1 10.11 4.82c3.72 3.45 4.65 8.4 4.83 11.54-.05 1-.17 3.74-.37 7.45a36.94 36.94 0 0 0-4.29-4 38.21 38.21 0 0 0-7.45-4.64c-.83-2-4.17-9.42-10-13.17.94-.73 1.94-1.38 2.97-2zm14 1.05a20.1 20.1 0 0 0-8.8-3.68 41.45 41.45 0 0 1 9.09-2.68zm15.1 0a45.09 45.09 0 0 0-1.43-6.59 42.85 42.85 0 0 1 9.62 2.54 21 21 0 0 0-8.19 4.05zM65.7 8.4a41 41 0 0 1 4.86 3c-5.89 3.76-9.14 11.15-9.92 13.12a38.12 38.12 0 0 0-7.55 4.69 37.1 37.1 0 0 0-4.3 4c-.12-2.22-.21-4.08-.27-5.44A23.92 23.92 0 0 1 50 19.71c2.49-6.58 7.77-10.39 15.7-11.31zm19 20.44a1.32 1.32 0 0 0-.36.48c-1.24 2.78-7.06 8.36-9.53 10.58a45 45 0 0 0-4.5.8A44 44 0 0 0 65 42.33a37.92 37.92 0 0 0 5.47-9.72 44.6 44.6 0 0 0 2.48-8.9 47.68 47.68 0 0 1 8.92-.35 42.83 42.83 0 0 1 2.88 5.48zm3.18 11.31a48.4 48.4 0 0 0-8.77-.57A53.62 53.62 0 0 0 86 32a42.27 42.27 0 0 1 1.93 8.15zm-20-8.45c-1.78 4.52-5.17 10.75-11.26 14.76a1 1 0 0 0-.25.21 44.16 44.16 0 0 0-6.49 5.14c-.34-5.14-.65-10.3-.88-14.69a34.82 34.82 0 0 1 5.76-5.8 36.26 36.26 0 0 1 10.79-5.88 39 39 0 0 1 4.55-1.24 44 44 0 0 1-2.19 7.5zm-31-.45a35 35 0 0 1 5.87 5.88c-.24 4.38-.54 9.54-.89 14.68a43.62 43.62 0 0 0-6.49-5.14 1.21 1.21 0 0 0-.24-.21c-6.09-4-9.49-10.24-11.27-14.76a42.84 42.84 0 0 1-2.18-7.5 38.57 38.57 0 0 1 4.43 1.21 36 36 0 0 1 10.8 5.84zM23 56.73a31.28 31.28 0 0 0-10.58-3.41c2.7-6.66 9.16-9.29 10-9.6a41.29 41.29 0 0 1 10.34 4.47 42.34 42.34 0 0 1 7.4 5.69 37.21 37.21 0 0 0-9.58.55 36.27 36.27 0 0 0-7.58 2.3zm36-8.48a41 41 0 0 1 10.44-4.53A18.29 18.29 0 0 1 79.2 53a28.89 28.89 0 0 0-10.47 3.76 36.33 36.33 0 0 0-7.51-2.29 37.21 37.21 0 0 0-9.58-.55A41.43 41.43 0 0 1 59 48.25zm23 4.45a20 20 0 0 0-8.43-9.89 44.12 44.12 0 0 1 14 0 1.32 1.32 0 0 0 .63-.06c.08 1 .12 2.09.12 3.14a42.11 42.11 0 0 1-.62 7.24 24.6 24.6 0 0 0-5.7-.43zm-2-32.09a44.85 44.85 0 0 0-15.25 2.28l-.48.17c1.34-2.72 4.17-7.44 8.59-9.85h.06a42.29 42.29 0 0 1 7.08 7.4zm-31-17a45 45 0 0 1 2 9.28 20.22 20.22 0 0 0-3.42 5.89c-.86 2.26-2 2.48-2.72.33a17.12 17.12 0 0 0-4-6.39l.41-9a42.66 42.66 0 0 1 4.69-.26c.96.02 1.97.06 2.97.13zm-30 9.58h.06c4.42 2.41 7.25 7.13 8.59 9.85l-.48-.17a44.83 44.83 0 0 0-15.24-2.28 42.23 42.23 0 0 1 6.99-7.42zm-8.29 56.4a33.7 33.7 0 0 1 30.83-12.85c-.49 6.66-1.06 12.83-1.65 16.7-1.72 11.17-8.1 12-9.3 12a42.57 42.57 0 0 1-19.88-15.85zm50.51 15.88c-1.2 0-7.59-.86-9.3-12-.6-3.87-1.16-10-1.66-16.7a32.81 32.81 0 0 1 10.46.34A33.31 33.31 0 0 1 71 60.83a34.79 34.79 0 0 1 10.07 8.76 42.54 42.54 0 0 1-19.85 15.88z" fill="#333"></path><path d="M31.76 61.13c2.45-2.45 6.56-2.31 6.56-2.31s.15 4.12-2.3 6.57-6.57 2.31-6.57 2.31-.15-4.12 2.31-6.57zM38 38.54c2.45 2.45 2.31 6.57 2.31 6.57s-4.12.14-6.57-2.31-2.3-6.57-2.3-6.57 4.13-.14 6.56 2.31zM28 48.05c2.76.2 4.84 2.75 4.84 2.75s-2.41 2.25-5.18 2.06-4.84-2.75-4.84-2.75 2.44-2.25 5.18-2.06zM39.72 21.76c1.82 2.09 1.48 5.37 1.48 5.37s-3.29-.11-5.12-2.2-1.48-5.37-1.48-5.37 3.3.11 5.12 2.2zM52.39 21.76c-1.83 2.09-1.49 5.37-1.49 5.37s3.3-.13 5.1-2.2 1.48-5.37 1.48-5.37-3.27.11-5.09 2.2zM60.05 61.13c-2.45-2.45-6.57-2.31-6.57-2.31s-.14 4.12 2.31 6.57 6.57 2.31 6.57 2.31.14-4.12-2.31-6.57zM53.78 38.54c-2.45 2.45-2.31 6.57-2.31 6.57s4.12.14 6.57-2.31 2.31-6.57 2.31-6.57-4.12-.14-6.57 2.31zM63.78 48.05c-2.77.2-4.85 2.75-4.85 2.75s2.41 2.25 5.18 2.06S69 50.11 69 50.11s-2.46-2.25-5.22-2.06zM48.2 12.26c0 2.19-2.3 4-2.3 4s-2.3-1.78-2.3-4 2.3-4 2.3-4 2.3 1.8 2.3 4z" fill="#7bc04f"></path></svg></svg> </g></g></mask></g></svg>